<?xml version="1.0" standalone="no"?>
<!DOCTYPE svg PUBLIC "-//W3C//DTD SVG 20010904//EN"
 "http://www.w3.org/TR/2001/REC-SVG-20010904/DTD/svg10.dtd">
<svg version="1.0" xmlns="http://www.w3.org/2000/svg"
 width="512.000000pt" height="512.000000pt" viewBox="0 0 512.000000 512.000000"
 preserveAspectRatio="xMidYMid meet">

<g transform="translate(0.000000,512.000000) scale(0.100000,-0.100000)"
fill="#000000" stroke="none">
<path d="M84 4796 c-17 -8 -42 -29 -55 -47 l-24 -34 -3 -525 c-3 -687 -28
-633 301 -638 208 -3 213 -3 247 20 67 45 87 125 49 199 -30 60 -78 79 -201
79 l-98 0 0 90 0 90 48 0 c95 0 162 62 162 150 0 88 -67 150 -162 150 l-48 0
0 90 0 90 98 0 c124 0 171 19 203 81 39 77 12 164 -62 201 -29 15 -63 18 -229
18 -141 -1 -204 -5 -226 -14z"/>
<path d="M1015 4797 c-152 -40 -255 -152 -284 -311 -7 -36 -11 -206 -11 -435
0 -361 1 -376 21 -418 51 -105 198 -111 259 -11 17 28 20 51 20 141 l0 107 89
0 88 0 5 -109 c6 -124 20 -157 78 -190 72 -40 151 -20 204 52 20 27 21 41 24
390 4 397 -3 486 -44 578 -35 78 -122 159 -201 189 -71 27 -181 34 -248 17z
m160 -312 c24 -23 25 -28 25 -170 l0 -145 -91 0 -90 0 3 146 c3 146 3 146 31
170 38 32 90 32 122 -1z"/>
<path d="M1904 4801 c-104 -25 -207 -110 -256 -209 -31 -62 -33 -73 -33 -172
0 -94 3 -111 28 -161 63 -129 182 -213 321 -226 89 -8 121 -32 121 -93 0 -34
-6 -47 -28 -66 -24 -20 -39 -24 -95 -24 -51 0 -79 -6 -112 -22 -103 -54 -108
-196 -8 -259 29 -18 45 -20 145 -17 105 4 116 6 187 41 153 76 233 233 205
407 -26 171 -147 293 -320 321 -35 6 -74 13 -86 15 -58 11 -84 96 -44 145 17
21 30 25 110 29 97 6 124 18 165 73 26 36 27 112 0 157 -31 53 -74 70 -179 69
-49 -1 -104 -4 -121 -8z"/>
<path d="M2414 4796 c-42 -19 -76 -69 -81 -120 -5 -38 6 -65 116 -284 l121
-242 0 -243 c0 -266 4 -287 64 -332 39 -28 133 -28 173 1 59 43 63 65 63 326
l0 237 120 241 c128 258 136 283 102 350 -27 54 -77 83 -137 78 -79 -7 -99
-27 -169 -167 l-63 -125 -62 122 c-42 81 -73 129 -93 143 -38 27 -112 34 -154
15z"/>
<path d="M3290 3431 c-61 -32 -75 -70 -75 -196 0 -97 3 -114 23 -146 57 -93
194 -91 252 3 19 29 20 47 18 155 -3 114 -5 123 -28 148 -53 57 -126 71 -190
36z"/>
<path d="M113 3199 c-112 -26 -148 -173 -63 -254 28 -27 39 -30 111 -34 l79
-3 0 -421 c0 -404 1 -422 21 -463 21 -44 81 -84 127 -84 40 0 102 32 125 64
22 31 22 36 27 466 l5 435 77 5 c64 5 82 10 104 30 79 74 71 178 -19 244 -27
20 -42 21 -290 23 -144 1 -281 -3 -304 -8z"/>
<path d="M1075 3180 c-111 -36 -205 -131 -241 -243 -21 -65 -32 -544 -15 -653
22 -141 100 -246 229 -307 60 -28 77 -32 157 -32 80 0 97 4 157 32 129 61 207
166 229 307 17 109 6 588 -15 653 -65 202 -289 311 -501 243z m196 -306 c24
-25 24 -27 27 -277 4 -281 -1 -318 -48 -342 -36 -19 -54 -19 -90 0 -47 24 -52
61 -48 342 3 250 3 252 27 277 19 20 34 26 66 26 32 0 47 -6 66 -26z"/>
<path d="M2807 3119 c-26 -14 -45 -34 -58 -62 -35 -79 -21 -123 72 -216 83
-83 99 -93 152 -93 106 0 178 93 146 189 -15 46 -131 170 -176 189 -45 19 -91
17 -136 -7z"/>
<path d="M3785 3126 c-39 -18 -161 -143 -174 -179 -43 -114 60 -227 177 -195
39 11 164 123 188 170 8 15 14 47 14 71 0 105 -110 176 -205 133z"/>
<path d="M4537 3059 c-113 -27 -134 -44 -529 -437 l-377 -375 -63 57 c-112
101 -276 165 -421 166 -88 0 -204 -27 -287 -68 -58 -28 -99 -61 -183 -142
-118 -113 -137 -140 -137 -195 0 -50 11 -67 108 -170 114 -120 166 -192 218
-300 52 -109 82 -220 89 -329 11 -158 -24 -110 403 -538 212 -213 400 -394
418 -403 60 -28 227 -11 348 36 131 52 187 99 574 483 206 204 385 390 399
414 46 78 41 90 -186 431 l-203 303 165 167 c133 135 170 178 196 232 131 269
-15 588 -304 665 -56 15 -170 17 -228 3z m199 -314 c47 -28 84 -90 84 -143 0
-66 -29 -104 -237 -314 l-207 -208 -4 -58 -4 -58 201 -302 c111 -166 201 -306
201 -310 0 -4 -147 -154 -327 -334 -344 -342 -370 -363 -488 -394 l-50 -14
-322 323 -322 322 -11 85 c-32 248 -132 473 -296 666 l-54 63 33 24 c76 57
117 72 207 72 116 0 158 -21 279 -138 127 -122 134 -127 176 -137 80 -18 80
-18 530 430 231 231 434 426 450 434 46 24 111 20 161 -9z"/>
<path d="M82 1579 c-29 -15 -49 -34 -63 -61 -19 -38 -20 -55 -17 -461 3 -415
3 -423 26 -479 33 -81 108 -160 190 -200 62 -31 73 -33 172 -33 97 0 110 2
170 31 110 52 185 147 210 264 8 38 10 177 8 460 -3 402 -3 405 -26 437 -28
40 -98 68 -146 59 -44 -8 -94 -50 -112 -93 -11 -25 -14 -116 -14 -423 l0 -391
-25 -24 c-16 -17 -35 -25 -59 -25 -96 0 -96 -2 -96 451 0 371 -1 384 -21 427
-16 33 -32 49 -63 63 -53 24 -82 24 -134 -2z"/>
<path d="M1192 1590 c-64 -13 -157 -67 -203 -117 -111 -121 -135 -320 -55
-457 63 -107 181 -182 307 -196 89 -10 119 -34 119 -95 0 -66 -30 -87 -132
-93 -95 -5 -131 -20 -158 -65 -26 -43 -26 -121 0 -164 31 -52 72 -68 175 -67
153 1 256 46 333 143 122 153 106 402 -34 530 -59 56 -131 88 -227 102 -112
17 -151 57 -125 131 14 40 55 58 133 58 111 0 166 44 172 138 5 64 -15 107
-63 138 -31 21 -172 29 -242 14z"/>
<path d="M1850 1578 c-83 -43 -80 -21 -80 -614 l0 -521 23 -33 c49 -73 56 -75
280 -75 184 0 205 2 236 20 54 32 75 68 75 129 0 61 -19 97 -67 126 -26 17
-51 20 -139 20 l-108 0 0 95 0 95 54 0 c120 0 191 113 137 218 -24 47 -67 72
-136 79 l-55 6 0 88 0 87 113 4 c132 4 164 19 192 93 21 55 14 103 -22 146
-45 53 -73 59 -276 59 -170 0 -186 -2 -227 -22z"/>
</g>
</svg>
