<?xml version="1.0" standalone="no"?>
<!DOCTYPE svg PUBLIC "-//W3C//DTD SVG 20010904//EN"
 "http://www.w3.org/TR/2001/REC-SVG-20010904/DTD/svg10.dtd">
<svg version="1.0" xmlns="http://www.w3.org/2000/svg"
 width="377.000000pt" height="347.000000pt" viewBox="0 0 377.000000 347.000000"
 preserveAspectRatio="xMidYMid meet">

<g transform="translate(0.000000,347.000000) scale(0.100000,-0.100000)"
fill="#000000" stroke="none">
<path d="M2005 3056 c-147 -37 -262 -143 -305 -284 -52 -166 7 -383 141 -527
120 -127 260 -164 393 -102 125 58 247 228 281 392 19 89 19 137 0 208 -21 81
-49 132 -106 192 -105 111 -259 157 -404 121z m167 -97 c69 -15 100 -31 155
-82 125 -115 136 -300 28 -482 -72 -122 -190 -198 -278 -180 -147 32 -287 238
-287 424 0 182 129 318 312 330 9 1 41 -4 70 -10z"/>
<path d="M1831 2014 c-139 -37 -284 -144 -355 -263 -28 -46 -67 -146 -82 -208
-2 -8 -41 8 -106 41 -57 30 -129 59 -161 66 l-57 11 0 56 c0 49 -4 59 -34 89
l-34 34 -216 0 -216 0 -32 -29 -33 -29 0 -556 0 -556 28 -27 27 -28 212 -3
c223 -3 255 1 283 42 8 11 15 35 15 53 0 38 0 38 77 18 47 -12 141 -15 524
-15 428 0 472 2 545 19 58 15 154 58 359 162 154 78 292 151 308 161 30 21 61
75 71 125 16 70 -31 156 -105 193 -35 19 -38 23 -44 77 -12 117 -26 170 -66
253 -75 153 -220 272 -384 315 -81 21 -445 20 -524 -1z m502 -99 c32 -8 81
-27 110 -41 71 -36 177 -145 210 -216 34 -71 59 -178 55 -230 l-3 -40 -190
-69 c-238 -87 -292 -105 -332 -114 -33 -7 -33 -6 -33 32 0 95 -56 184 -142
227 -51 26 -56 26 -267 26 -119 0 -222 4 -230 9 -19 12 -7 70 31 151 58 122
202 238 334 269 67 16 392 13 457 -4z m-1363 -690 l0 -515 -182 2 -183 3 -3
500 c-1 275 0 506 3 513 3 9 50 12 185 12 l180 0 0 -515z m213 294 c18 -7 64
-32 102 -55 106 -65 154 -74 422 -81 203 -5 236 -8 263 -25 37 -22 69 -88 70
-139 0 -44 4 -43 -210 -59 -80 -6 -150 -16 -157 -22 -18 -15 -16 -54 4 -74 15
-14 31 -16 128 -10 146 9 272 23 369 42 71 14 484 158 528 184 10 5 36 10 57
10 49 0 88 -31 97 -76 5 -26 1 -37 -23 -62 -38 -41 -548 -298 -630 -318 -52
-12 -143 -14 -560 -12 -443 3 -502 5 -535 20 l-38 17 0 339 c0 186 2 341 6
344 6 7 63 -5 107 -23z"/>
</g>
</svg>
